<?xml version="1.0" standalone="no"?>
<!DOCTYPE svg PUBLIC "-//W3C//DTD SVG 20010904//EN"
 "http://www.w3.org/TR/2001/REC-SVG-20010904/DTD/svg10.dtd">
<svg version="1.0" xmlns="http://www.w3.org/2000/svg"
 width="959.000000pt" height="959.000000pt" viewBox="0 0 959.000000 959.000000"
 preserveAspectRatio="xMidYMid meet">
<metadata>
Created by potrace 1.11, written by Peter Selinger 2001-2013
</metadata>
<g transform="translate(0.000000,959.000000) scale(0.100000,-0.100000)"
fill="#000000" stroke="none">
<path d="M4757 8724 c-1 -1 -63 -4 -138 -8 -75 -4 -147 -9 -160 -11 -13 -2
-51 -6 -84 -9 -80 -8 -300 -44 -350 -57 -22 -6 -47 -12 -55 -14 -163 -33 -483
-137 -650 -212 -482 -217 -844 -464 -1190 -812 -151 -152 -171 -174 -287 -319
-157 -195 -303 -424 -423 -663 -220 -438 -331 -820 -395 -1354 -13 -117 -13
-582 1 -720 54 -542 208 -1037 467 -1504 398 -715 1029 -1295 1772 -1628 376
-168 853 -293 1215 -319 47 -3 99 -8 115 -10 42 -5 441 -5 490 1 22 2 69 6
105 10 732 65 1461 362 2040 829 438 354 805 818 1046 1322 277 578 399 1179
372 1827 -43 1062 -540 2068 -1362 2756 -501 421 -1116 713 -1735 826 -42 8
-87 16 -101 19 -14 2 -65 9 -115 15 -49 7 -106 13 -125 16 -64 8 -446 24 -453
19z"/>
</g>
</svg>
